<svg xmlns="http://www.w3.org/2000/svg" width="38" height="39" viewBox="0 0 38 39"><g transform="translate(9941 1033)"><rect width="38" height="39" transform="translate(-9941 -1033)" fill="rgba(108,23,23,0)"/><g transform="translate(-9959.736 -1032.25)"><path d="M23.761,24.922l.461,4.577a1.43,1.43,0,0,0,.033.195,4.539,4.539,0,0,0,2.014,2.785,4.586,4.586,0,0,0,3.388.6c.907-.19,2.43-.38,3.588-.5v3.883H43.519V29.018H40.67v4.6H36.093V29.5s-5.446.466-7.02.8A1.73,1.73,0,0,1,27.045,29.1l-.558-5.545c-.064-.639-.353-1.054-2.265-1.7l2.256-3.99a1.424,1.424,0,0,0,.18-.694c0-.015,0-.029,0-.047a8.157,8.157,0,0,0-.079-.851A12.07,12.07,0,0,1,38.313,2.854l.312,0h.1c7.029,0,12.911,6.791,13,13.754.045,3.5-4.316,8.974-4.316,8.974l1.973,1.417s5.184-6.058,5.128-10.391C54.4,8.084,47.31,0,38.727,0H38.6l-.356.006a14.962,14.962,0,0,0-13.9,10.383,27.334,27.334,0,0,0-.6,6.214s.029.253-3.532,6.953Z" transform="translate(0 0)" fill="#fff"/><g transform="translate(30.943 10.407)"><path d="M167.24,122.859l-4.847,11.033H165.1l.669-1.9H168.7l.782,1.9h2.839Zm-.388,6.284.388-1.018.384,1.018Z" transform="translate(-162.394 -122.859)" fill="#fff"/><path d="M310.813,121.325h-1.425v10.969h2.849V121.325Z" transform="translate(-298.724 -121.287)" fill="#fff"/></g></g></g></svg>